<mxfile host="app.diagrams.net" modified="2023-09-19T00:51:23.087Z" agent="Mozilla/5.0 (Windows NT 10.0; Win64; x64) AppleWebKit/537.36 (KHTML, like Gecko) Chrome/116.0.0.0 Safari/537.36" etag="aEqvy81vs-tPKJcOROb1" version="21.6.9" type="google">
  <diagram name="PÃ¡gina-1" id="l7oPooPMSPUZMmV1gbd_">
    <mxGraphModel grid="1" page="1" gridSize="10" guides="1" tooltips="1" connect="1" arrows="1" fold="1" pageScale="1" pageWidth="827" pageHeight="1169" math="0" shadow="0">
      <root>
        <mxCell id="0" />
        <mxCell id="1" parent="0" />
        <mxCell id="UiFxOg2Ivpp8a6ELdIRq-1" value="Tarea" style="rounded=0;whiteSpace=wrap;html=1;" vertex="1" parent="1">
          <mxGeometry width="120" height="40" as="geometry" />
        </mxCell>
        <mxCell id="UiFxOg2Ivpp8a6ELdIRq-2" value="Predecesor" style="rounded=0;whiteSpace=wrap;html=1;" vertex="1" parent="1">
          <mxGeometry x="240" width="120" height="40" as="geometry" />
        </mxCell>
        <mxCell id="UiFxOg2Ivpp8a6ELdIRq-3" value="Duracion" style="rounded=0;whiteSpace=wrap;html=1;" vertex="1" parent="1">
          <mxGeometry x="120" width="120" height="40" as="geometry" />
        </mxCell>
        <mxCell id="UiFxOg2Ivpp8a6ELdIRq-4" value="21 d" style="rounded=0;whiteSpace=wrap;html=1;" vertex="1" parent="1">
          <mxGeometry x="120" y="160" width="120" height="40" as="geometry" />
        </mxCell>
        <mxCell id="UiFxOg2Ivpp8a6ELdIRq-5" value="Cuatro" style="rounded=0;whiteSpace=wrap;html=1;" vertex="1" parent="1">
          <mxGeometry x="240" y="200" width="120" height="40" as="geometry" />
        </mxCell>
        <mxCell id="UiFxOg2Ivpp8a6ELdIRq-6" value="3 d" style="rounded=0;whiteSpace=wrap;html=1;" vertex="1" parent="1">
          <mxGeometry x="120" y="200" width="120" height="40" as="geometry" />
        </mxCell>
        <mxCell id="UiFxOg2Ivpp8a6ELdIRq-7" value="Fase Cinco" style="rounded=0;whiteSpace=wrap;html=1;" vertex="1" parent="1">
          <mxGeometry y="200" width="120" height="40" as="geometry" />
        </mxCell>
        <mxCell id="UiFxOg2Ivpp8a6ELdIRq-8" value="Tres" style="rounded=0;whiteSpace=wrap;html=1;" vertex="1" parent="1">
          <mxGeometry x="240" y="160" width="120" height="40" as="geometry" />
        </mxCell>
        <mxCell id="UiFxOg2Ivpp8a6ELdIRq-9" value="Fase Cuatro" style="rounded=0;whiteSpace=wrap;html=1;" vertex="1" parent="1">
          <mxGeometry y="160" width="120" height="40" as="geometry" />
        </mxCell>
        <mxCell id="UiFxOg2Ivpp8a6ELdIRq-10" value="Dos" style="rounded=0;whiteSpace=wrap;html=1;" vertex="1" parent="1">
          <mxGeometry x="240" y="120" width="120" height="40" as="geometry" />
        </mxCell>
        <mxCell id="UiFxOg2Ivpp8a6ELdIRq-11" value="10 d" style="rounded=0;whiteSpace=wrap;html=1;" vertex="1" parent="1">
          <mxGeometry x="120" y="120" width="120" height="40" as="geometry" />
        </mxCell>
        <mxCell id="UiFxOg2Ivpp8a6ELdIRq-12" value="Fase Tres" style="rounded=0;whiteSpace=wrap;html=1;" vertex="1" parent="1">
          <mxGeometry y="120" width="120" height="40" as="geometry" />
        </mxCell>
        <mxCell id="UiFxOg2Ivpp8a6ELdIRq-13" value="Fase Dos" style="rounded=0;whiteSpace=wrap;html=1;" vertex="1" parent="1">
          <mxGeometry y="80" width="120" height="40" as="geometry" />
        </mxCell>
        <mxCell id="UiFxOg2Ivpp8a6ELdIRq-14" value="5 d" style="rounded=0;whiteSpace=wrap;html=1;" vertex="1" parent="1">
          <mxGeometry x="120" y="80" width="120" height="40" as="geometry" />
        </mxCell>
        <mxCell id="UiFxOg2Ivpp8a6ELdIRq-15" value="Uno" style="rounded=0;whiteSpace=wrap;html=1;" vertex="1" parent="1">
          <mxGeometry x="240" y="80" width="120" height="40" as="geometry" />
        </mxCell>
        <mxCell id="UiFxOg2Ivpp8a6ELdIRq-16" value="" style="rounded=0;whiteSpace=wrap;html=1;" vertex="1" parent="1">
          <mxGeometry x="240" y="40" width="120" height="40" as="geometry" />
        </mxCell>
        <mxCell id="UiFxOg2Ivpp8a6ELdIRq-17" value="8 d" style="rounded=0;whiteSpace=wrap;html=1;" vertex="1" parent="1">
          <mxGeometry x="120" y="40" width="120" height="40" as="geometry" />
        </mxCell>
        <mxCell id="UiFxOg2Ivpp8a6ELdIRq-18" value="Fase Uno" style="rounded=0;whiteSpace=wrap;html=1;" vertex="1" parent="1">
          <mxGeometry y="40" width="120" height="40" as="geometry" />
        </mxCell>
        <mxCell id="UiFxOg2Ivpp8a6ELdIRq-20" value="2 d" style="rounded=0;whiteSpace=wrap;html=1;" vertex="1" parent="1">
          <mxGeometry x="120" y="320" width="120" height="40" as="geometry" />
        </mxCell>
        <mxCell id="UiFxOg2Ivpp8a6ELdIRq-21" value="Ocho" style="rounded=0;whiteSpace=wrap;html=1;" vertex="1" parent="1">
          <mxGeometry x="240" y="360" width="120" height="40" as="geometry" />
        </mxCell>
        <mxCell id="UiFxOg2Ivpp8a6ELdIRq-22" value="5 d" style="rounded=0;whiteSpace=wrap;html=1;" vertex="1" parent="1">
          <mxGeometry x="120" y="360" width="120" height="40" as="geometry" />
        </mxCell>
        <mxCell id="UiFxOg2Ivpp8a6ELdIRq-23" value="Fase Nueve" style="rounded=0;whiteSpace=wrap;html=1;" vertex="1" parent="1">
          <mxGeometry y="360" width="120" height="40" as="geometry" />
        </mxCell>
        <mxCell id="UiFxOg2Ivpp8a6ELdIRq-24" value="Cinco" style="rounded=0;whiteSpace=wrap;html=1;" vertex="1" parent="1">
          <mxGeometry x="240" y="320" width="120" height="40" as="geometry" />
        </mxCell>
        <mxCell id="UiFxOg2Ivpp8a6ELdIRq-25" value="Fase Ocho" style="rounded=0;whiteSpace=wrap;html=1;" vertex="1" parent="1">
          <mxGeometry y="320" width="120" height="40" as="geometry" />
        </mxCell>
        <mxCell id="UiFxOg2Ivpp8a6ELdIRq-26" value="Seis" style="rounded=0;whiteSpace=wrap;html=1;" vertex="1" parent="1">
          <mxGeometry x="240" y="280" width="120" height="40" as="geometry" />
        </mxCell>
        <mxCell id="UiFxOg2Ivpp8a6ELdIRq-27" value="5 d" style="rounded=0;whiteSpace=wrap;html=1;" vertex="1" parent="1">
          <mxGeometry x="120" y="280" width="120" height="40" as="geometry" />
        </mxCell>
        <mxCell id="UiFxOg2Ivpp8a6ELdIRq-28" value="Fase Siete" style="rounded=0;whiteSpace=wrap;html=1;" vertex="1" parent="1">
          <mxGeometry y="280" width="120" height="40" as="geometry" />
        </mxCell>
        <mxCell id="UiFxOg2Ivpp8a6ELdIRq-29" value="Fase Seis" style="rounded=0;whiteSpace=wrap;html=1;" vertex="1" parent="1">
          <mxGeometry y="240" width="120" height="40" as="geometry" />
        </mxCell>
        <mxCell id="UiFxOg2Ivpp8a6ELdIRq-30" value="4 d" style="rounded=0;whiteSpace=wrap;html=1;" vertex="1" parent="1">
          <mxGeometry x="120" y="240" width="120" height="40" as="geometry" />
        </mxCell>
        <mxCell id="UiFxOg2Ivpp8a6ELdIRq-31" value="Cuatro" style="rounded=0;whiteSpace=wrap;html=1;" vertex="1" parent="1">
          <mxGeometry x="240" y="240" width="120" height="40" as="geometry" />
        </mxCell>
        <mxCell id="UiFxOg2Ivpp8a6ELdIRq-38" value="Diez" style="rounded=0;whiteSpace=wrap;html=1;" vertex="1" parent="1">
          <mxGeometry x="240" y="440" width="120" height="40" as="geometry" />
        </mxCell>
        <mxCell id="UiFxOg2Ivpp8a6ELdIRq-39" value="2 d" style="rounded=0;whiteSpace=wrap;html=1;" vertex="1" parent="1">
          <mxGeometry x="120" y="440" width="120" height="40" as="geometry" />
        </mxCell>
        <mxCell id="UiFxOg2Ivpp8a6ELdIRq-40" value="Fase Once" style="rounded=0;whiteSpace=wrap;html=1;" vertex="1" parent="1">
          <mxGeometry y="440" width="120" height="40" as="geometry" />
        </mxCell>
        <mxCell id="UiFxOg2Ivpp8a6ELdIRq-41" value="Fase Diez" style="rounded=0;whiteSpace=wrap;html=1;" vertex="1" parent="1">
          <mxGeometry y="400" width="120" height="40" as="geometry" />
        </mxCell>
        <mxCell id="UiFxOg2Ivpp8a6ELdIRq-42" value="1 d" style="rounded=0;whiteSpace=wrap;html=1;" vertex="1" parent="1">
          <mxGeometry x="120" y="400" width="120" height="40" as="geometry" />
        </mxCell>
        <mxCell id="UiFxOg2Ivpp8a6ELdIRq-43" value="Nueve" style="rounded=0;whiteSpace=wrap;html=1;" vertex="1" parent="1">
          <mxGeometry x="240" y="400" width="120" height="40" as="geometry" />
        </mxCell>
        <mxCell id="yK05bHgJ1KblvaiHkFz4-12" style="edgeStyle=orthogonalEdgeStyle;rounded=0;orthogonalLoop=1;jettySize=auto;html=1;entryX=0;entryY=0.5;entryDx=0;entryDy=0;" edge="1" parent="1" source="yK05bHgJ1KblvaiHkFz4-1" target="yK05bHgJ1KblvaiHkFz4-3">
          <mxGeometry relative="1" as="geometry" />
        </mxCell>
        <mxCell id="yK05bHgJ1KblvaiHkFz4-1" value="Fase Uno" style="ellipse;whiteSpace=wrap;html=1;aspect=fixed;" vertex="1" parent="1">
          <mxGeometry x="10" y="620" width="70" height="70" as="geometry" />
        </mxCell>
        <mxCell id="yK05bHgJ1KblvaiHkFz4-14" style="edgeStyle=orthogonalEdgeStyle;rounded=0;orthogonalLoop=1;jettySize=auto;html=1;entryX=0;entryY=0.5;entryDx=0;entryDy=0;" edge="1" parent="1" source="yK05bHgJ1KblvaiHkFz4-2" target="yK05bHgJ1KblvaiHkFz4-5">
          <mxGeometry relative="1" as="geometry" />
        </mxCell>
        <mxCell id="yK05bHgJ1KblvaiHkFz4-2" value="Fase Tres" style="ellipse;whiteSpace=wrap;html=1;aspect=fixed;" vertex="1" parent="1">
          <mxGeometry x="250" y="620" width="70" height="70" as="geometry" />
        </mxCell>
        <mxCell id="yK05bHgJ1KblvaiHkFz4-13" style="edgeStyle=orthogonalEdgeStyle;rounded=0;orthogonalLoop=1;jettySize=auto;html=1;entryX=0;entryY=0.5;entryDx=0;entryDy=0;" edge="1" parent="1" source="yK05bHgJ1KblvaiHkFz4-3" target="yK05bHgJ1KblvaiHkFz4-2">
          <mxGeometry relative="1" as="geometry" />
        </mxCell>
        <mxCell id="yK05bHgJ1KblvaiHkFz4-3" value="Fase Dos" style="ellipse;whiteSpace=wrap;html=1;aspect=fixed;" vertex="1" parent="1">
          <mxGeometry x="130" y="620" width="70" height="70" as="geometry" />
        </mxCell>
        <mxCell id="yK05bHgJ1KblvaiHkFz4-16" style="edgeStyle=orthogonalEdgeStyle;rounded=0;orthogonalLoop=1;jettySize=auto;html=1;" edge="1" parent="1" source="yK05bHgJ1KblvaiHkFz4-4" target="yK05bHgJ1KblvaiHkFz4-6">
          <mxGeometry relative="1" as="geometry" />
        </mxCell>
        <mxCell id="yK05bHgJ1KblvaiHkFz4-4" value="Fase Cinco" style="ellipse;whiteSpace=wrap;html=1;aspect=fixed;" vertex="1" parent="1">
          <mxGeometry x="490" y="620" width="70" height="70" as="geometry" />
        </mxCell>
        <mxCell id="yK05bHgJ1KblvaiHkFz4-15" style="edgeStyle=orthogonalEdgeStyle;rounded=0;orthogonalLoop=1;jettySize=auto;html=1;entryX=0;entryY=0.5;entryDx=0;entryDy=0;" edge="1" parent="1" source="yK05bHgJ1KblvaiHkFz4-5" target="yK05bHgJ1KblvaiHkFz4-4">
          <mxGeometry relative="1" as="geometry" />
        </mxCell>
        <mxCell id="yK05bHgJ1KblvaiHkFz4-19" style="edgeStyle=orthogonalEdgeStyle;rounded=0;orthogonalLoop=1;jettySize=auto;html=1;entryX=0.5;entryY=1;entryDx=0;entryDy=0;" edge="1" parent="1" source="yK05bHgJ1KblvaiHkFz4-5" target="yK05bHgJ1KblvaiHkFz4-11">
          <mxGeometry relative="1" as="geometry" />
        </mxCell>
        <mxCell id="yK05bHgJ1KblvaiHkFz4-5" value="Fase Cuatro" style="ellipse;whiteSpace=wrap;html=1;aspect=fixed;" vertex="1" parent="1">
          <mxGeometry x="370" y="620" width="70" height="70" as="geometry" />
        </mxCell>
        <mxCell id="yK05bHgJ1KblvaiHkFz4-20" style="edgeStyle=orthogonalEdgeStyle;rounded=0;orthogonalLoop=1;jettySize=auto;html=1;entryX=0;entryY=0.5;entryDx=0;entryDy=0;" edge="1" parent="1" source="yK05bHgJ1KblvaiHkFz4-6" target="yK05bHgJ1KblvaiHkFz4-8">
          <mxGeometry relative="1" as="geometry" />
        </mxCell>
        <mxCell id="yK05bHgJ1KblvaiHkFz4-6" value="Fase Ocho" style="ellipse;whiteSpace=wrap;html=1;aspect=fixed;" vertex="1" parent="1">
          <mxGeometry x="610" y="620" width="70" height="70" as="geometry" />
        </mxCell>
        <mxCell id="yK05bHgJ1KblvaiHkFz4-7" value="Fase Once" style="ellipse;whiteSpace=wrap;html=1;aspect=fixed;" vertex="1" parent="1">
          <mxGeometry x="730" y="840" width="70" height="70" as="geometry" />
        </mxCell>
        <mxCell id="yK05bHgJ1KblvaiHkFz4-21" style="edgeStyle=orthogonalEdgeStyle;rounded=0;orthogonalLoop=1;jettySize=auto;html=1;entryX=0.5;entryY=0;entryDx=0;entryDy=0;" edge="1" parent="1" source="yK05bHgJ1KblvaiHkFz4-8" target="yK05bHgJ1KblvaiHkFz4-9">
          <mxGeometry relative="1" as="geometry" />
        </mxCell>
        <mxCell id="yK05bHgJ1KblvaiHkFz4-8" value="Fase Nueve" style="ellipse;whiteSpace=wrap;html=1;aspect=fixed;" vertex="1" parent="1">
          <mxGeometry x="730" y="620" width="70" height="70" as="geometry" />
        </mxCell>
        <mxCell id="yK05bHgJ1KblvaiHkFz4-22" style="edgeStyle=orthogonalEdgeStyle;rounded=0;orthogonalLoop=1;jettySize=auto;html=1;entryX=0.5;entryY=0;entryDx=0;entryDy=0;" edge="1" parent="1" source="yK05bHgJ1KblvaiHkFz4-9" target="yK05bHgJ1KblvaiHkFz4-7">
          <mxGeometry relative="1" as="geometry" />
        </mxCell>
        <mxCell id="yK05bHgJ1KblvaiHkFz4-9" value="Fase Diez" style="ellipse;whiteSpace=wrap;html=1;aspect=fixed;" vertex="1" parent="1">
          <mxGeometry x="730" y="730" width="70" height="70" as="geometry" />
        </mxCell>
        <mxCell id="yK05bHgJ1KblvaiHkFz4-10" value="Fase Sieste" style="ellipse;whiteSpace=wrap;html=1;aspect=fixed;" vertex="1" parent="1">
          <mxGeometry x="480" y="510" width="70" height="70" as="geometry" />
        </mxCell>
        <mxCell id="yK05bHgJ1KblvaiHkFz4-18" style="edgeStyle=orthogonalEdgeStyle;rounded=0;orthogonalLoop=1;jettySize=auto;html=1;entryX=0;entryY=0.5;entryDx=0;entryDy=0;" edge="1" parent="1" source="yK05bHgJ1KblvaiHkFz4-11" target="yK05bHgJ1KblvaiHkFz4-10">
          <mxGeometry relative="1" as="geometry" />
        </mxCell>
        <mxCell id="yK05bHgJ1KblvaiHkFz4-11" value="Fase Seis" style="ellipse;whiteSpace=wrap;html=1;aspect=fixed;" vertex="1" parent="1">
          <mxGeometry x="370" y="510" width="70" height="70" as="geometry" />
        </mxCell>
        <mxCell id="yK05bHgJ1KblvaiHkFz4-26" value="" style="line;strokeWidth=2;html=1;" vertex="1" parent="1">
          <mxGeometry x="40" y="575" width="40" height="10" as="geometry" />
        </mxCell>
        <mxCell id="yK05bHgJ1KblvaiHkFz4-27" value="" style="line;strokeWidth=2;direction=south;html=1;" vertex="1" parent="1">
          <mxGeometry x="55" y="560" width="10" height="40" as="geometry" />
        </mxCell>
        <mxCell id="yK05bHgJ1KblvaiHkFz4-29" value="0" style="text;html=1;strokeColor=none;fillColor=none;align=center;verticalAlign=middle;whiteSpace=wrap;rounded=0;" vertex="1" parent="1">
          <mxGeometry x="15" y="555" width="60" height="30" as="geometry" />
        </mxCell>
        <mxCell id="yK05bHgJ1KblvaiHkFz4-30" value="8" style="text;html=1;strokeColor=none;fillColor=none;align=center;verticalAlign=middle;whiteSpace=wrap;rounded=0;" vertex="1" parent="1">
          <mxGeometry x="40" y="555" width="60" height="30" as="geometry" />
        </mxCell>
        <mxCell id="yK05bHgJ1KblvaiHkFz4-31" value="8" style="text;html=1;strokeColor=none;fillColor=none;align=center;verticalAlign=middle;whiteSpace=wrap;rounded=0;" vertex="1" parent="1">
          <mxGeometry x="40" y="575" width="60" height="30" as="geometry" />
        </mxCell>
        <mxCell id="yK05bHgJ1KblvaiHkFz4-32" value="0" style="text;html=1;strokeColor=none;fillColor=none;align=center;verticalAlign=middle;whiteSpace=wrap;rounded=0;" vertex="1" parent="1">
          <mxGeometry x="15" y="575" width="60" height="30" as="geometry" />
        </mxCell>
        <mxCell id="yK05bHgJ1KblvaiHkFz4-37" value="" style="line;strokeWidth=2;html=1;" vertex="1" parent="1">
          <mxGeometry x="140" y="580" width="40" height="10" as="geometry" />
        </mxCell>
        <mxCell id="yK05bHgJ1KblvaiHkFz4-38" value="" style="line;strokeWidth=2;direction=south;html=1;" vertex="1" parent="1">
          <mxGeometry x="155" y="565" width="10" height="40" as="geometry" />
        </mxCell>
        <mxCell id="yK05bHgJ1KblvaiHkFz4-39" value="8" style="text;html=1;strokeColor=none;fillColor=none;align=center;verticalAlign=middle;whiteSpace=wrap;rounded=0;" vertex="1" parent="1">
          <mxGeometry x="115" y="560" width="60" height="30" as="geometry" />
        </mxCell>
        <mxCell id="yK05bHgJ1KblvaiHkFz4-40" value="13" style="text;html=1;strokeColor=none;fillColor=none;align=center;verticalAlign=middle;whiteSpace=wrap;rounded=0;" vertex="1" parent="1">
          <mxGeometry x="140" y="560" width="60" height="30" as="geometry" />
        </mxCell>
        <mxCell id="yK05bHgJ1KblvaiHkFz4-41" value="13" style="text;html=1;strokeColor=none;fillColor=none;align=center;verticalAlign=middle;whiteSpace=wrap;rounded=0;" vertex="1" parent="1">
          <mxGeometry x="140" y="580" width="60" height="30" as="geometry" />
        </mxCell>
        <mxCell id="yK05bHgJ1KblvaiHkFz4-42" value="8" style="text;html=1;strokeColor=none;fillColor=none;align=center;verticalAlign=middle;whiteSpace=wrap;rounded=0;" vertex="1" parent="1">
          <mxGeometry x="115" y="580" width="60" height="30" as="geometry" />
        </mxCell>
        <mxCell id="yK05bHgJ1KblvaiHkFz4-45" value="" style="line;strokeWidth=2;html=1;" vertex="1" parent="1">
          <mxGeometry x="260" y="580" width="40" height="10" as="geometry" />
        </mxCell>
        <mxCell id="yK05bHgJ1KblvaiHkFz4-46" value="" style="line;strokeWidth=2;direction=south;html=1;" vertex="1" parent="1">
          <mxGeometry x="275" y="565" width="10" height="40" as="geometry" />
        </mxCell>
        <mxCell id="yK05bHgJ1KblvaiHkFz4-47" value="13" style="text;html=1;strokeColor=none;fillColor=none;align=center;verticalAlign=middle;whiteSpace=wrap;rounded=0;" vertex="1" parent="1">
          <mxGeometry x="235" y="560" width="60" height="30" as="geometry" />
        </mxCell>
        <mxCell id="yK05bHgJ1KblvaiHkFz4-48" value="23" style="text;html=1;strokeColor=none;fillColor=none;align=center;verticalAlign=middle;whiteSpace=wrap;rounded=0;" vertex="1" parent="1">
          <mxGeometry x="260" y="560" width="60" height="30" as="geometry" />
        </mxCell>
        <mxCell id="yK05bHgJ1KblvaiHkFz4-49" value="23" style="text;html=1;strokeColor=none;fillColor=none;align=center;verticalAlign=middle;whiteSpace=wrap;rounded=0;" vertex="1" parent="1">
          <mxGeometry x="260" y="580" width="60" height="30" as="geometry" />
        </mxCell>
        <mxCell id="yK05bHgJ1KblvaiHkFz4-50" value="13" style="text;html=1;strokeColor=none;fillColor=none;align=center;verticalAlign=middle;whiteSpace=wrap;rounded=0;" vertex="1" parent="1">
          <mxGeometry x="235" y="580" width="60" height="30" as="geometry" />
        </mxCell>
        <mxCell id="yK05bHgJ1KblvaiHkFz4-51" value="" style="line;strokeWidth=2;html=1;" vertex="1" parent="1">
          <mxGeometry x="345" y="600" width="40" height="10" as="geometry" />
        </mxCell>
        <mxCell id="yK05bHgJ1KblvaiHkFz4-52" value="" style="line;strokeWidth=2;direction=south;html=1;" vertex="1" parent="1">
          <mxGeometry x="360" y="585" width="10" height="40" as="geometry" />
        </mxCell>
        <mxCell id="yK05bHgJ1KblvaiHkFz4-53" value="23" style="text;html=1;strokeColor=none;fillColor=none;align=center;verticalAlign=middle;whiteSpace=wrap;rounded=0;" vertex="1" parent="1">
          <mxGeometry x="320" y="580" width="60" height="30" as="geometry" />
        </mxCell>
        <mxCell id="yK05bHgJ1KblvaiHkFz4-54" value="34" style="text;html=1;strokeColor=none;fillColor=none;align=center;verticalAlign=middle;whiteSpace=wrap;rounded=0;" vertex="1" parent="1">
          <mxGeometry x="345" y="580" width="60" height="30" as="geometry" />
        </mxCell>
        <mxCell id="yK05bHgJ1KblvaiHkFz4-55" value="34" style="text;html=1;strokeColor=none;fillColor=none;align=center;verticalAlign=middle;whiteSpace=wrap;rounded=0;" vertex="1" parent="1">
          <mxGeometry x="345" y="600" width="60" height="30" as="geometry" />
        </mxCell>
        <mxCell id="yK05bHgJ1KblvaiHkFz4-56" value="23" style="text;html=1;strokeColor=none;fillColor=none;align=center;verticalAlign=middle;whiteSpace=wrap;rounded=0;" vertex="1" parent="1">
          <mxGeometry x="320" y="600" width="60" height="30" as="geometry" />
        </mxCell>
        <mxCell id="yK05bHgJ1KblvaiHkFz4-57" value="" style="line;strokeWidth=2;html=1;" vertex="1" parent="1">
          <mxGeometry x="385" y="480" width="40" height="10" as="geometry" />
        </mxCell>
        <mxCell id="yK05bHgJ1KblvaiHkFz4-58" value="" style="line;strokeWidth=2;direction=south;html=1;" vertex="1" parent="1">
          <mxGeometry x="400" y="465" width="10" height="40" as="geometry" />
        </mxCell>
        <mxCell id="yK05bHgJ1KblvaiHkFz4-59" value="37" style="text;html=1;strokeColor=none;fillColor=none;align=center;verticalAlign=middle;whiteSpace=wrap;rounded=0;" vertex="1" parent="1">
          <mxGeometry x="360" y="460" width="60" height="30" as="geometry" />
        </mxCell>
        <mxCell id="yK05bHgJ1KblvaiHkFz4-60" value="41" style="text;html=1;strokeColor=none;fillColor=none;align=center;verticalAlign=middle;whiteSpace=wrap;rounded=0;" vertex="1" parent="1">
          <mxGeometry x="385" y="460" width="60" height="30" as="geometry" />
        </mxCell>
        <mxCell id="yK05bHgJ1KblvaiHkFz4-61" value="41" style="text;html=1;strokeColor=none;fillColor=none;align=center;verticalAlign=middle;whiteSpace=wrap;rounded=0;" vertex="1" parent="1">
          <mxGeometry x="385" y="480" width="60" height="30" as="geometry" />
        </mxCell>
        <mxCell id="yK05bHgJ1KblvaiHkFz4-62" value="37" style="text;html=1;strokeColor=none;fillColor=none;align=center;verticalAlign=middle;whiteSpace=wrap;rounded=0;" vertex="1" parent="1">
          <mxGeometry x="360" y="480" width="60" height="30" as="geometry" />
        </mxCell>
        <mxCell id="yK05bHgJ1KblvaiHkFz4-63" value="" style="line;strokeWidth=2;html=1;" vertex="1" parent="1">
          <mxGeometry x="497.5" y="480" width="40" height="10" as="geometry" />
        </mxCell>
        <mxCell id="yK05bHgJ1KblvaiHkFz4-64" value="" style="line;strokeWidth=2;direction=south;html=1;" vertex="1" parent="1">
          <mxGeometry x="512.5" y="465" width="10" height="40" as="geometry" />
        </mxCell>
        <mxCell id="yK05bHgJ1KblvaiHkFz4-65" value="41" style="text;html=1;strokeColor=none;fillColor=none;align=center;verticalAlign=middle;whiteSpace=wrap;rounded=0;" vertex="1" parent="1">
          <mxGeometry x="472.5" y="460" width="60" height="30" as="geometry" />
        </mxCell>
        <mxCell id="yK05bHgJ1KblvaiHkFz4-66" value="46" style="text;html=1;strokeColor=none;fillColor=none;align=center;verticalAlign=middle;whiteSpace=wrap;rounded=0;" vertex="1" parent="1">
          <mxGeometry x="497.5" y="460" width="60" height="30" as="geometry" />
        </mxCell>
        <mxCell id="yK05bHgJ1KblvaiHkFz4-67" value="46" style="text;html=1;strokeColor=none;fillColor=none;align=center;verticalAlign=middle;whiteSpace=wrap;rounded=0;" vertex="1" parent="1">
          <mxGeometry x="497.5" y="480" width="60" height="30" as="geometry" />
        </mxCell>
        <mxCell id="yK05bHgJ1KblvaiHkFz4-68" value="41" style="text;html=1;strokeColor=none;fillColor=none;align=center;verticalAlign=middle;whiteSpace=wrap;rounded=0;" vertex="1" parent="1">
          <mxGeometry x="472.5" y="480" width="60" height="30" as="geometry" />
        </mxCell>
        <mxCell id="yK05bHgJ1KblvaiHkFz4-69" value="" style="line;strokeWidth=2;html=1;" vertex="1" parent="1">
          <mxGeometry x="452.5" y="600" width="40" height="10" as="geometry" />
        </mxCell>
        <mxCell id="yK05bHgJ1KblvaiHkFz4-70" value="" style="line;strokeWidth=2;direction=south;html=1;" vertex="1" parent="1">
          <mxGeometry x="467.5" y="585" width="10" height="40" as="geometry" />
        </mxCell>
        <mxCell id="yK05bHgJ1KblvaiHkFz4-71" value="34" style="text;html=1;strokeColor=none;fillColor=none;align=center;verticalAlign=middle;whiteSpace=wrap;rounded=0;" vertex="1" parent="1">
          <mxGeometry x="427.5" y="580" width="60" height="30" as="geometry" />
        </mxCell>
        <mxCell id="yK05bHgJ1KblvaiHkFz4-72" value="37" style="text;html=1;strokeColor=none;fillColor=none;align=center;verticalAlign=middle;whiteSpace=wrap;rounded=0;" vertex="1" parent="1">
          <mxGeometry x="452.5" y="580" width="60" height="30" as="geometry" />
        </mxCell>
        <mxCell id="yK05bHgJ1KblvaiHkFz4-73" value="37" style="text;html=1;strokeColor=none;fillColor=none;align=center;verticalAlign=middle;whiteSpace=wrap;rounded=0;" vertex="1" parent="1">
          <mxGeometry x="452.5" y="600" width="60" height="30" as="geometry" />
        </mxCell>
        <mxCell id="yK05bHgJ1KblvaiHkFz4-74" value="34" style="text;html=1;strokeColor=none;fillColor=none;align=center;verticalAlign=middle;whiteSpace=wrap;rounded=0;" vertex="1" parent="1">
          <mxGeometry x="427.5" y="600" width="60" height="30" as="geometry" />
        </mxCell>
        <mxCell id="yK05bHgJ1KblvaiHkFz4-75" value="" style="line;strokeWidth=2;html=1;" vertex="1" parent="1">
          <mxGeometry x="627.5" y="590" width="40" height="10" as="geometry" />
        </mxCell>
        <mxCell id="yK05bHgJ1KblvaiHkFz4-76" value="" style="line;strokeWidth=2;direction=south;html=1;" vertex="1" parent="1">
          <mxGeometry x="642.5" y="575" width="10" height="40" as="geometry" />
        </mxCell>
        <mxCell id="yK05bHgJ1KblvaiHkFz4-77" value="46" style="text;html=1;strokeColor=none;fillColor=none;align=center;verticalAlign=middle;whiteSpace=wrap;rounded=0;" vertex="1" parent="1">
          <mxGeometry x="602.5" y="570" width="60" height="30" as="geometry" />
        </mxCell>
        <mxCell id="yK05bHgJ1KblvaiHkFz4-78" value="48" style="text;html=1;strokeColor=none;fillColor=none;align=center;verticalAlign=middle;whiteSpace=wrap;rounded=0;" vertex="1" parent="1">
          <mxGeometry x="627.5" y="570" width="60" height="30" as="geometry" />
        </mxCell>
        <mxCell id="yK05bHgJ1KblvaiHkFz4-79" value="48" style="text;html=1;strokeColor=none;fillColor=none;align=center;verticalAlign=middle;whiteSpace=wrap;rounded=0;" vertex="1" parent="1">
          <mxGeometry x="627.5" y="590" width="60" height="30" as="geometry" />
        </mxCell>
        <mxCell id="yK05bHgJ1KblvaiHkFz4-80" value="46" style="text;html=1;strokeColor=none;fillColor=none;align=center;verticalAlign=middle;whiteSpace=wrap;rounded=0;" vertex="1" parent="1">
          <mxGeometry x="602.5" y="590" width="60" height="30" as="geometry" />
        </mxCell>
        <mxCell id="yK05bHgJ1KblvaiHkFz4-81" value="" style="line;strokeWidth=2;html=1;" vertex="1" parent="1">
          <mxGeometry x="747.5" y="590" width="40" height="10" as="geometry" />
        </mxCell>
        <mxCell id="yK05bHgJ1KblvaiHkFz4-82" value="" style="line;strokeWidth=2;direction=south;html=1;" vertex="1" parent="1">
          <mxGeometry x="762.5" y="575" width="10" height="40" as="geometry" />
        </mxCell>
        <mxCell id="yK05bHgJ1KblvaiHkFz4-83" value="48" style="text;html=1;strokeColor=none;fillColor=none;align=center;verticalAlign=middle;whiteSpace=wrap;rounded=0;" vertex="1" parent="1">
          <mxGeometry x="722.5" y="570" width="60" height="30" as="geometry" />
        </mxCell>
        <mxCell id="yK05bHgJ1KblvaiHkFz4-84" value="53" style="text;html=1;strokeColor=none;fillColor=none;align=center;verticalAlign=middle;whiteSpace=wrap;rounded=0;" vertex="1" parent="1">
          <mxGeometry x="747.5" y="570" width="60" height="30" as="geometry" />
        </mxCell>
        <mxCell id="yK05bHgJ1KblvaiHkFz4-85" value="53" style="text;html=1;strokeColor=none;fillColor=none;align=center;verticalAlign=middle;whiteSpace=wrap;rounded=0;" vertex="1" parent="1">
          <mxGeometry x="747.5" y="590" width="60" height="30" as="geometry" />
        </mxCell>
        <mxCell id="yK05bHgJ1KblvaiHkFz4-86" value="48" style="text;html=1;strokeColor=none;fillColor=none;align=center;verticalAlign=middle;whiteSpace=wrap;rounded=0;" vertex="1" parent="1">
          <mxGeometry x="722.5" y="590" width="60" height="30" as="geometry" />
        </mxCell>
        <mxCell id="yK05bHgJ1KblvaiHkFz4-87" value="" style="line;strokeWidth=2;html=1;" vertex="1" parent="1">
          <mxGeometry x="677.5" y="750" width="40" height="10" as="geometry" />
        </mxCell>
        <mxCell id="yK05bHgJ1KblvaiHkFz4-88" value="" style="line;strokeWidth=2;direction=south;html=1;" vertex="1" parent="1">
          <mxGeometry x="692.5" y="735" width="10" height="40" as="geometry" />
        </mxCell>
        <mxCell id="yK05bHgJ1KblvaiHkFz4-89" value="53" style="text;html=1;strokeColor=none;fillColor=none;align=center;verticalAlign=middle;whiteSpace=wrap;rounded=0;" vertex="1" parent="1">
          <mxGeometry x="652.5" y="730" width="60" height="30" as="geometry" />
        </mxCell>
        <mxCell id="yK05bHgJ1KblvaiHkFz4-90" value="54" style="text;html=1;strokeColor=none;fillColor=none;align=center;verticalAlign=middle;whiteSpace=wrap;rounded=0;" vertex="1" parent="1">
          <mxGeometry x="677.5" y="730" width="60" height="30" as="geometry" />
        </mxCell>
        <mxCell id="yK05bHgJ1KblvaiHkFz4-91" value="54" style="text;html=1;strokeColor=none;fillColor=none;align=center;verticalAlign=middle;whiteSpace=wrap;rounded=0;" vertex="1" parent="1">
          <mxGeometry x="677.5" y="750" width="60" height="30" as="geometry" />
        </mxCell>
        <mxCell id="yK05bHgJ1KblvaiHkFz4-92" value="53" style="text;html=1;strokeColor=none;fillColor=none;align=center;verticalAlign=middle;whiteSpace=wrap;rounded=0;" vertex="1" parent="1">
          <mxGeometry x="652.5" y="750" width="60" height="30" as="geometry" />
        </mxCell>
        <mxCell id="yK05bHgJ1KblvaiHkFz4-94" value="" style="line;strokeWidth=2;html=1;" vertex="1" parent="1">
          <mxGeometry x="680" y="870" width="40" height="10" as="geometry" />
        </mxCell>
        <mxCell id="yK05bHgJ1KblvaiHkFz4-95" value="" style="line;strokeWidth=2;direction=south;html=1;" vertex="1" parent="1">
          <mxGeometry x="695" y="855" width="10" height="40" as="geometry" />
        </mxCell>
        <mxCell id="yK05bHgJ1KblvaiHkFz4-96" value="54" style="text;html=1;strokeColor=none;fillColor=none;align=center;verticalAlign=middle;whiteSpace=wrap;rounded=0;" vertex="1" parent="1">
          <mxGeometry x="655" y="850" width="60" height="30" as="geometry" />
        </mxCell>
        <mxCell id="yK05bHgJ1KblvaiHkFz4-97" value="56" style="text;html=1;strokeColor=none;fillColor=none;align=center;verticalAlign=middle;whiteSpace=wrap;rounded=0;" vertex="1" parent="1">
          <mxGeometry x="680" y="850" width="60" height="30" as="geometry" />
        </mxCell>
        <mxCell id="yK05bHgJ1KblvaiHkFz4-98" value="56" style="text;html=1;strokeColor=none;fillColor=none;align=center;verticalAlign=middle;whiteSpace=wrap;rounded=0;" vertex="1" parent="1">
          <mxGeometry x="680" y="870" width="60" height="30" as="geometry" />
        </mxCell>
        <mxCell id="yK05bHgJ1KblvaiHkFz4-99" value="54" style="text;html=1;strokeColor=none;fillColor=none;align=center;verticalAlign=middle;whiteSpace=wrap;rounded=0;" vertex="1" parent="1">
          <mxGeometry x="655" y="870" width="60" height="30" as="geometry" />
        </mxCell>
        <mxCell id="yK05bHgJ1KblvaiHkFz4-107" style="edgeStyle=orthogonalEdgeStyle;rounded=0;orthogonalLoop=1;jettySize=auto;html=1;entryX=0;entryY=0.5;entryDx=0;entryDy=0;" edge="1" parent="1" source="yK05bHgJ1KblvaiHkFz4-106" target="yK05bHgJ1KblvaiHkFz4-1">
          <mxGeometry relative="1" as="geometry" />
        </mxCell>
        <mxCell id="yK05bHgJ1KblvaiHkFz4-106" value="Inicio" style="ellipse;whiteSpace=wrap;html=1;aspect=fixed;" vertex="1" parent="1">
          <mxGeometry x="-110" y="620" width="70" height="70" as="geometry" />
        </mxCell>
        <mxCell id="yK05bHgJ1KblvaiHkFz4-120" value="" style="line;strokeWidth=2;html=1;" vertex="1" parent="1">
          <mxGeometry x="-92.5" y="575" width="40" height="10" as="geometry" />
        </mxCell>
        <mxCell id="yK05bHgJ1KblvaiHkFz4-121" value="" style="line;strokeWidth=2;direction=south;html=1;" vertex="1" parent="1">
          <mxGeometry x="-77.5" y="560" width="10" height="40" as="geometry" />
        </mxCell>
        <mxCell id="yK05bHgJ1KblvaiHkFz4-122" value="0" style="text;html=1;strokeColor=none;fillColor=none;align=center;verticalAlign=middle;whiteSpace=wrap;rounded=0;" vertex="1" parent="1">
          <mxGeometry x="-117.5" y="555" width="60" height="30" as="geometry" />
        </mxCell>
        <mxCell id="yK05bHgJ1KblvaiHkFz4-123" value="0" style="text;html=1;strokeColor=none;fillColor=none;align=center;verticalAlign=middle;whiteSpace=wrap;rounded=0;" vertex="1" parent="1">
          <mxGeometry x="-92.5" y="555" width="60" height="30" as="geometry" />
        </mxCell>
        <mxCell id="yK05bHgJ1KblvaiHkFz4-124" value="0" style="text;html=1;strokeColor=none;fillColor=none;align=center;verticalAlign=middle;whiteSpace=wrap;rounded=0;" vertex="1" parent="1">
          <mxGeometry x="-92.5" y="575" width="60" height="30" as="geometry" />
        </mxCell>
        <mxCell id="yK05bHgJ1KblvaiHkFz4-125" value="0" style="text;html=1;strokeColor=none;fillColor=none;align=center;verticalAlign=middle;whiteSpace=wrap;rounded=0;" vertex="1" parent="1">
          <mxGeometry x="-117.5" y="575" width="60" height="30" as="geometry" />
        </mxCell>
        <mxCell id="yK05bHgJ1KblvaiHkFz4-126" value="H=0" style="text;html=1;strokeColor=none;fillColor=none;align=center;verticalAlign=middle;whiteSpace=wrap;rounded=0;" vertex="1" parent="1">
          <mxGeometry x="30" y="530" width="60" height="30" as="geometry" />
        </mxCell>
        <mxCell id="yK05bHgJ1KblvaiHkFz4-127" value="H=0" style="text;html=1;strokeColor=none;fillColor=none;align=center;verticalAlign=middle;whiteSpace=wrap;rounded=0;" vertex="1" parent="1">
          <mxGeometry x="130" y="535" width="60" height="30" as="geometry" />
        </mxCell>
        <mxCell id="yK05bHgJ1KblvaiHkFz4-129" value="H=0" style="text;html=1;strokeColor=none;fillColor=none;align=center;verticalAlign=middle;whiteSpace=wrap;rounded=0;" vertex="1" parent="1">
          <mxGeometry x="250" y="530" width="60" height="30" as="geometry" />
        </mxCell>
        <mxCell id="yK05bHgJ1KblvaiHkFz4-130" value="H=0" style="text;html=1;strokeColor=none;fillColor=none;align=center;verticalAlign=middle;whiteSpace=wrap;rounded=0;" vertex="1" parent="1">
          <mxGeometry x="375" y="435" width="60" height="30" as="geometry" />
        </mxCell>
        <mxCell id="yK05bHgJ1KblvaiHkFz4-131" value="H=0" style="text;html=1;strokeColor=none;fillColor=none;align=center;verticalAlign=middle;whiteSpace=wrap;rounded=0;" vertex="1" parent="1">
          <mxGeometry x="487.5" y="435" width="60" height="30" as="geometry" />
        </mxCell>
        <mxCell id="yK05bHgJ1KblvaiHkFz4-132" value="H=0" style="text;html=1;strokeColor=none;fillColor=none;align=center;verticalAlign=middle;whiteSpace=wrap;rounded=0;" vertex="1" parent="1">
          <mxGeometry x="320" y="555" width="60" height="30" as="geometry" />
        </mxCell>
        <mxCell id="yK05bHgJ1KblvaiHkFz4-133" value="H=0" style="text;html=1;strokeColor=none;fillColor=none;align=center;verticalAlign=middle;whiteSpace=wrap;rounded=0;" vertex="1" parent="1">
          <mxGeometry x="437.5" y="560" width="60" height="30" as="geometry" />
        </mxCell>
        <mxCell id="yK05bHgJ1KblvaiHkFz4-134" value="H=0" style="text;html=1;strokeColor=none;fillColor=none;align=center;verticalAlign=middle;whiteSpace=wrap;rounded=0;" vertex="1" parent="1">
          <mxGeometry x="615" y="545" width="60" height="30" as="geometry" />
        </mxCell>
        <mxCell id="yK05bHgJ1KblvaiHkFz4-135" value="H=0" style="text;html=1;strokeColor=none;fillColor=none;align=center;verticalAlign=middle;whiteSpace=wrap;rounded=0;" vertex="1" parent="1">
          <mxGeometry x="735" y="545" width="60" height="30" as="geometry" />
        </mxCell>
        <mxCell id="yK05bHgJ1KblvaiHkFz4-136" value="H=0" style="text;html=1;strokeColor=none;fillColor=none;align=center;verticalAlign=middle;whiteSpace=wrap;rounded=0;" vertex="1" parent="1">
          <mxGeometry x="667.5" y="705" width="60" height="30" as="geometry" />
        </mxCell>
        <mxCell id="yK05bHgJ1KblvaiHkFz4-137" value="H=0" style="text;html=1;strokeColor=none;fillColor=none;align=center;verticalAlign=middle;whiteSpace=wrap;rounded=0;" vertex="1" parent="1">
          <mxGeometry x="667.5" y="825" width="60" height="30" as="geometry" />
        </mxCell>
      </root>
    </mxGraphModel>
  </diagram>
</mxfile>
